<svg width="24" height="24" viewBox="0 0 24 24" fill="none" xmlns="http://www.w3.org/2000/svg">
<path d="M18.6703 13.7634C19.5938 13.4921 20.4193 12.96 21.0477 12.231L21.2734 11.9678C21.3977 11.8181 21.5079 11.6572 21.6026 11.4872L21.7486 11.2366C21.8677 11.0152 21.9679 10.7842 22.0482 10.5459L22.0835 10.4524C22.1726 10.1779 22.2336 9.89509 22.2658 9.60831C22.2797 9.52703 22.2872 9.44479 22.2882 9.36234C22.3111 9.14286 22.3167 8.92193 22.3049 8.70157L22.2929 8.44475C22.2463 8.14759 22.1753 7.85475 22.0808 7.56919L20.1322 0.845884L18.0859 4.56243L14.244 5.67593L10.5275 3.62964L12.4761 10.3529C12.8452 11.6266 13.7052 12.7015 14.8669 13.3411C16.0285 13.9806 17.3967 14.1326 18.6703 13.7634V13.7634ZM18.6426 6.48337C18.8326 6.42831 19.0346 6.43082 19.2232 6.49058C19.4117 6.55034 19.5783 6.66467 19.7019 6.8191C19.8254 6.97354 19.9004 7.16114 19.9174 7.3582C19.9343 7.55525 19.8924 7.7529 19.797 7.92616C19.7016 8.09942 19.557 8.24049 19.3814 8.33155C19.2059 8.42261 19.0072 8.45956 18.8107 8.43773C18.6141 8.41591 18.4284 8.33628 18.2771 8.20892C18.1258 8.08155 18.0156 7.91218 17.9606 7.72222C17.8867 7.46749 17.9171 7.19386 18.045 6.96153C18.1729 6.7292 18.3879 6.5572 18.6426 6.48337V6.48337ZM14.8008 7.59687C14.9907 7.54182 15.1927 7.54433 15.3813 7.60409C15.5698 7.66384 15.7364 7.77817 15.86 7.9326C15.9835 8.08704 16.0585 8.27464 16.0755 8.4717C16.0924 8.66875 16.0505 8.86641 15.9551 9.03966C15.8597 9.21292 15.7151 9.354 15.5395 9.44506C15.364 9.53611 15.1653 9.57307 14.9688 9.55124C14.7722 9.52941 14.5865 9.44978 14.4352 9.32242C14.2839 9.19506 14.1737 9.02569 14.1187 8.83572C14.0448 8.58099 14.0752 8.30736 14.2031 8.07503C14.3311 7.8427 14.546 7.6707 14.8008 7.59687V7.59687Z" fill="white"/>
<path d="M11 22V17H8V22H5V11.9C4.49137 11.8261 4.00533 11.6408 3.57662 11.3573C3.14791 11.0738 2.78711 10.6991 2.52 10.26C2.19711 9.72829 2.01792 9.12181 2 8.5C2.01813 8.00249 2.13785 7.51394 2.35179 7.06441C2.56573 6.61488 2.86937 6.21387 3.24404 5.88604C3.6187 5.55821 4.05647 5.31049 4.53042 5.15811C5.00437 5.00574 5.50448 4.95193 6 5C6.26683 5.01604 6.53402 4.9753 6.78394 4.88046C7.03386 4.78562 7.26082 4.63885 7.44984 4.44984C7.63885 4.26082 7.78562 4.03386 7.88046 3.78394C7.9753 3.53402 8.01604 3.26683 8 3C8 2.73478 8.10536 2.48043 8.29289 2.29289C8.48043 2.10536 8.73478 2 9 2C9.26522 2 9.51957 2.10536 9.70711 2.29289C9.89464 2.48043 10 2.73478 10 3C10.0152 3.52941 9.92212 4.05635 9.72648 4.54853C9.53084 5.0407 9.23675 5.48774 8.86225 5.86225C8.48774 6.23675 8.0407 6.53084 7.54853 6.72648C7.05635 6.92212 6.52941 7.01519 6 7C4.19 7 4 8.16 4 8.51C4 8.86 4.18 10 6 10H11.09C11.2369 10.8615 11.5702 11.6805 12.0666 12.3997C12.563 13.119 13.2106 13.7211 13.9639 14.164C14.7173 14.6068 15.5584 14.8798 16.4282 14.9638C17.2981 15.0477 18.1758 14.9406 19 14.65V22H16V17H14V22H11Z" fill="white"/>
</svg>
