<svg width="20" height="21" viewBox="0 0 20 21" fill="none" xmlns="http://www.w3.org/2000/svg">
<path d="M19.947 8.17901C19.8841 7.99388 19.7685 7.83121 19.6142 7.71107C19.4599 7.59094 19.2739 7.51861 19.079 7.50301L13.378 7.05001L10.911 1.58901C10.8324 1.41313 10.7046 1.26374 10.543 1.15887C10.3815 1.05401 10.193 0.998153 10.0003 0.998047C9.80769 0.997941 9.61914 1.05359 9.45743 1.15828C9.29572 1.26296 9.16776 1.41221 9.089 1.58801L6.622 7.05001L0.921003 7.50301C0.729459 7.51819 0.546341 7.58823 0.393558 7.70475C0.240775 7.82127 0.124796 7.97934 0.0594965 8.16004C-0.00580327 8.34075 -0.0176588 8.53645 0.0253483 8.72372C0.0683555 8.91099 0.164404 9.0819 0.302004 9.21601L4.515 13.323L3.025 19.775C2.97976 19.9703 2.99426 20.1747 3.06662 20.3617C3.13898 20.5486 3.26587 20.7095 3.43081 20.8235C3.59574 20.9374 3.79112 20.9991 3.99159 21.0007C4.19205 21.0022 4.38835 20.9434 4.555 20.832L10 17.202L15.445 20.832C15.6153 20.9451 15.8162 21.0033 16.0206 20.9988C16.225 20.9944 16.4232 20.9274 16.5884 20.8069C16.7536 20.6865 16.878 20.5183 16.9448 20.3251C17.0116 20.1318 17.0176 19.9228 16.962 19.726L15.133 13.326L19.669 9.24401C19.966 8.97601 20.075 8.55801 19.947 8.17901V8.17901Z" fill="#A6ECFF"/>
</svg>
